<svg xmlns="http://www.w3.org/2000/svg" xmlns:xlink="http://www.w3.org/1999/xlink" version="1.1" x="0px" y="0px" viewBox="0 0 100 125" enable-background="new 0 0 100 100" xml:space="preserve"><path fill-rule="evenodd" clip-rule="evenodd" d="M36.932,28.712c8.842,0,17.69-0.14,26.529,0.074  c3.561,0.089,7.335,0.354,10.598,1.609c5.317,2.045,9.89,5.366,16.354,4.598c2.273-0.266,6.082,4.038,7.483,7.041  c1.771,3.801-0.117,7.573-3.513,10.495c-1.69,1.454-3.439,3.609-3.808,5.684c-2.185,12.214-12.562,21.219-25.057,21.27  c-12.547,0.052-23.451-8.715-24.931-21.077c-0.646-5.426-2.676-7.558-7.872-8.474c-8.69-1.527-17.225-3.918-25.879-5.69  c-3.708-0.76-5.997-2.074-5.207-6.354c0.254-1.395,0.144-2.894-0.015-4.325c-0.424-3.83,1.347-4.997,5.007-4.938  c10.1,0.162,20.204,0.051,30.307,0.051C36.932,28.69,36.932,28.705,36.932,28.712z M48.113,53.821  c-0.144,9.652,7.698,17.676,17.278,17.683c9.354,0.008,17.229-7.742,17.361-17.086c0.134-9.624-7.738-17.653-17.311-17.653  C55.991,36.765,48.25,44.381,48.113,53.821z M46.544,35.724c-3.118-4-37.053-4.163-41.104,0  C19.377,35.724,32.559,35.724,46.544,35.724z M90.369,47.82c0.62,0.022,1.24,0.044,1.859,0.066c0-2.037,0.524-4.288-0.191-6.022  c-0.466-1.114-2.768-1.469-5.462-2.73C88.303,43.082,89.336,45.451,90.369,47.82z"/><path fill-rule="evenodd" clip-rule="evenodd" d="M65.607,65.533c-6.21,0.103-11.553-4.938-11.76-11.078  c-0.21-6.325,5.21-11.816,11.617-11.779c6.261,0.029,11.372,5.122,11.424,11.374C76.94,60.293,71.885,65.437,65.607,65.533z"/><text x="0" y="115" fill="#000000" font-size="5px" font-weight="bold" font-family="'Helvetica Neue', Helvetica, Arial-Unicode, Arial, Sans-serif">Created by Ealancheliyan s</text><text x="0" y="120" fill="#000000" font-size="5px" font-weight="bold" font-family="'Helvetica Neue', Helvetica, Arial-Unicode, Arial, Sans-serif">from the Noun Project</text></svg>